
<svg width="112px" height="112px" viewBox="0 0 112 112" version="1.1" xmlns="http://www.w3.org/2000/svg" xmlns:xlink="http://www.w3.org/1999/xlink">
    <!-- Generator: Sketch 48.2 (47327) - http://www.bohemiancoding.com/sketch -->
    <desc>Created with Sketch.</desc>
    <defs></defs>
    <g id="Page-1" stroke="none" stroke-width="1" fill="none" fill-rule="evenodd">
        <g id="icon-nanex" transform="translate(-9.000000, -9.000000)">
            <rect id="Rectangle" x="0" y="0" width="130" height="130" rx="8"></rect>
            <path d="M120.667,64.83379 C120.667,95.66998 95.66937,120.66628 64.8335,120.66628 C33.9975,120.66628 9,95.66998 9,64.83379 C9,33.9975 33.9975,9 64.8335,9 C95.66937,9 120.667,33.9975 120.667,64.83379" id="path3385" fill="#5D8BCF" fill-rule="nonzero"></path>
            <polygon id="path3387" fill="#FFFFFF" fill-rule="nonzero" points="26.6045 86.15998 32.542 86.15998 32.542 67.09749 26.6045 67.09749"></polygon>
            <polygon id="path3389" fill="#FFFFFF" fill-rule="nonzero" points="38.60937 73.84379 44.54687 73.84379 44.54687 54.78129 38.60937 54.78129"></polygon>
            <polygon id="path3391" fill="#FFFFFF" fill-rule="nonzero" points="62.62012 73.84379 68.55762 73.84379 68.55762 54.78129 62.62012 54.78129"></polygon>
            <polygon id="path3393" fill="#FFFFFF" fill-rule="nonzero" points="50.61475 60.52629 56.55225 60.52629 56.55225 41.46379 50.61475 41.46379"></polygon>
            <polygon id="path3395" fill="#FFFFFF" fill-rule="nonzero" points="74.625 85.97878 80.5625 85.97878 80.5625 66.91629 74.625 66.91629"></polygon>
            <polygon id="path3397" fill="#FFFFFF" fill-rule="nonzero" points="86.63037 74.33379 92.56787 74.33379 92.56787 55.27129 86.63037 55.27129"></polygon>
            <polygon id="path3399" fill="#FFFFFF" fill-rule="nonzero" points="98.63575 61.94129 104.57325 61.94129 104.57325 42.87879 98.63575 42.87879"></polygon>
        </g>
    </g>
</svg>