
<svg width="600px" height="600px" viewBox="0 0 600 600" version="1.1" xmlns="http://www.w3.org/2000/svg" xmlns:xlink="http://www.w3.org/1999/xlink">
    <!-- Generator: Sketch 48.2 (47327) - http://www.bohemiancoding.com/sketch -->
    <desc>Created with Sketch.</desc>
    <defs>
        <rect id="path-1" x="0" y="0" width="600" height="600" rx="55"></rect>
    </defs>
    <g id="Page-1" stroke="none" stroke-width="1" fill="none" fill-rule="evenodd">
        <g id="icon-garlicoin">
            <g id="Rectangle">
                <use fill="#C74671" fill-rule="evenodd" xlink:href="#path-1"></use>
                <rect stroke="#979797" stroke-width="1" x="0.5" y="0.5" width="599" height="599" rx="55"></rect>
            </g>
            <path d="M522.064301,279.992186 C521.090746,270.173051 519.630414,260.435066 517.439915,250.778231 C512.65327,229.841563 505.02709,209.959843 494.399116,191.214221 C479.227885,164.434762 459.432269,141.712797 434.931137,123.129475 C414.486484,107.629849 392.013591,95.9442664 367.512459,88.2350282 C349.420564,82.5545368 330.923021,79.146242 312.01983,78.2535934 C303.176706,77.847844 294.252453,77.9289939 285.328199,78.497043 C275.917169,79.146242 266.506138,80.2823403 257.257366,82.1487874 C232.837364,87.01778 209.796564,95.6196669 188.297227,108.279048 C174.180681,116.556335 161.037689,126.21317 149.111642,137.493003 C145.055163,141.144748 132.15556,154.859077 130.857487,156.400924 C116.822071,173.036649 105.382801,191.295371 96.6208063,211.177091 C85.6683136,236.090103 79.5835954,262.139214 78.2855222,289.243272 C77.7176152,301.172304 77.9610039,313.101336 79.3402067,325.030368 C80.9627982,338.988147 83.6400742,352.783626 87.8588122,366.173355 C100.515026,406.585994 122.74453,440.668942 154.709583,468.50335 C170.367591,482.136529 187.567061,493.335212 206.389122,502.099398 C232.350586,514.27188 259.691253,521.08847 288.248864,522.630317 C301.310726,523.360666 314.372587,523.036067 327.434449,521.413069 C342.362291,519.546622 357.046744,516.300627 371.32555,511.512784 C393.879572,503.965846 414.648743,493.010612 433.714193,478.728234 C438.987616,474.75189 473.305426,440.912392 477.767553,434.988451 C493.019913,414.782131 504.621442,392.709365 512.409882,368.607852 C518.251211,350.349129 521.820912,331.603508 522.713338,312.452137 C523.200115,301.740353 523.118986,290.86627 522.064301,279.992186 Z M440.204559,171.007902 C440.691337,173.280099 440.0423,175.389996 439.312134,177.418742 C435.417914,188.536276 431.442565,199.653809 427.872864,210.852492 C424.222033,222.375774 420.97685,234.142506 419.191999,246.152688 C417.650537,256.621022 417.407148,267.089356 418.137315,277.63884 C418.867481,288.837523 421.382498,299.792756 423.491867,310.74799 C425.114458,319.187577 425.438976,327.627164 424.78994,336.229051 C423.572996,351.322928 419.273129,365.443006 412.295985,378.832736 C410.105487,382.97138 407.50934,386.866574 404.994323,390.842918 C401.992529,394.738112 399.315253,399.039055 395.826681,402.5285 C392.824887,405.612195 389.660834,408.614741 386.415651,411.454986 C376.92349,419.732274 366.538905,426.386564 355.018505,431.417856 C342.200032,436.936048 328.894781,439.938593 314.940494,440.344342 C309.180295,440.506642 303.420095,440.019743 297.741024,439.127094 C281.677368,436.773748 267.236304,430.687507 254.174442,421.030672 C248.81989,417.054328 244.682282,411.617286 238.273045,409.02049 C237.218361,408.614741 236.325936,407.884392 235.352381,407.235193 C225.292313,400.580903 216.530319,392.384765 208.417362,383.377129 C201.521348,375.749041 195.112111,367.634053 189.919818,358.707567 C189.270782,357.571468 188.459486,356.59767 187.567061,355.705021 C181.644602,349.61878 176.533438,342.883341 172.558089,335.417552 C161.686726,314.967783 158.360413,293.381916 162.254633,270.578801 C164.850779,255.322624 170.692109,241.364845 179.048455,228.380865 C183.104934,222.051175 187.891579,216.208383 193.083872,210.690192 C197.140351,206.794998 200.953441,202.656354 205.577826,199.410359 C211.824804,195.028266 218.23404,190.889622 225.048925,187.481327 C236.812713,181.638536 249.225538,177.986792 262.20627,176.526094 C274.213447,175.227696 286.139495,176.444944 297.903284,179.12289 C312.506607,182.531185 327.353319,183.991882 342.281161,183.180384 C355.586412,182.450035 368.486014,179.528639 381.223358,175.795745 C395.502163,171.575951 409.53758,166.544659 423.572996,161.594517 C431.604824,158.997721 438.500838,162.974064 440.204559,171.007902 Z M492.857654,317.889179 C490.018119,348.320382 480.607088,376.47939 464.462302,402.44735 C458.134195,412.591085 450.832534,422.00447 442.881835,431.012107 C441.096985,432.959704 430.955788,443.914937 428.5219,445.132185 C421.139109,451.380726 413.594058,457.304667 405.481101,462.579409 C384.306282,476.293738 361.346612,485.544824 336.602091,490.251516 C325.811858,492.361413 314.859365,493.335212 303.825743,493.497512 C270.724876,494.065561 239.571119,486.518622 210.283342,471.100146 C196.734703,463.958956 184.240748,455.19477 172.801478,444.969885 C152.924732,427.279212 137.185594,406.342544 125.827454,382.322181 C118.120144,366.092205 112.927851,348.969581 110.088316,331.278908 C108.790243,323.40737 108.060077,315.535832 107.816688,307.583144 C107.086522,306.528196 107.41104,305.392098 107.492169,304.255999 C107.654429,300.685405 107.005392,297.03366 107.816688,293.463066 C108.952502,264.005661 116.335293,236.252403 130.127321,210.122143 C137.185594,196.813563 166.067723,162.243716 169.799684,158.510821 C180.752176,148.772836 192.272576,140.008649 205.009919,132.78631 C223.913111,122.074527 244.033245,114.608738 265.532583,110.713544 C275.917169,108.765947 286.464013,107.792148 297.010858,107.629849 C335.141759,106.98065 370.351995,116.799785 402.722695,136.924954 C408.239506,140.333249 413.594058,144.228443 418.786351,148.123637 C419.435388,148.610536 419.922165,149.178585 420.814591,149.908934 C417.16376,151.207332 413.837447,152.424581 410.430005,153.641829 C405.481101,155.345976 400.451067,157.050123 395.583293,158.835421 C394.285219,159.32232 393.311665,159.16002 392.25698,158.429671 C376.436713,148.042487 359.237243,140.738998 340.901959,136.275755 C329.706077,133.597809 318.347937,132.055962 306.827537,131.650212 C276.647335,130.514114 248.170854,137.006104 221.479223,150.963883 C203.711846,160.296119 188.134968,172.38745 174.829717,187.400177 C173.856162,188.455126 172.639219,189.185475 172.152441,190.646172 C169.961943,192.35032 168.50161,194.622516 166.879019,196.732413 C155.27749,211.82629 146.190977,228.380865 140.187388,246.396138 C134.021541,264.81716 131.100876,283.806231 131.506524,303.282201 C131.668783,311.721788 132.31782,320.161375 133.697022,328.519813 C136.455428,345.561287 141.72885,361.710112 149.51729,377.047439 C160.713171,399.120205 175.965531,417.865827 195.3555,433.284303 C221.398094,453.896372 250.929259,465.744254 283.867867,469.152549 C294.090193,470.207497 304.39365,470.207497 314.697106,469.314848 C326.785412,468.34105 338.468071,466.068853 350.069601,462.498259 C361.75226,458.927664 372.948141,454.058672 383.576115,448.134731 C390.066481,444.564136 396.1512,440.425492 401.992529,435.962249 C406.130137,432.797404 410.105487,429.470259 413.999706,425.899664 C418.542963,421.761021 422.92396,417.460077 427.061568,412.915684 C432.902897,406.667144 437.932931,399.850554 442.557317,392.628215 C452.860773,376.722839 460.324694,359.519065 464.786821,341.016894 C467.464097,330.06166 468.924429,318.862977 469.411206,307.583144 C470.62815,277.80114 464.381173,249.642133 450.913663,223.106123 C448.479776,218.31828 445.8025,213.611587 442.800706,209.067194 C442.232799,208.174546 441.583762,207.281897 442.070539,206.064649 C445.072334,197.543912 447.992998,189.023175 451.075922,180.258988 C453.50981,182.531185 455.051272,185.046831 456.754993,187.400177 C471.439446,207.687646 481.905161,230.003862 487.90875,254.348825 C490.504896,264.65486 492.046358,275.204344 492.938783,285.834978 C493.831209,296.465611 493.831209,307.258545 492.857654,317.889179 Z" id="Shape" fill="#FDDD62" fill-rule="nonzero"></path>
            <path d="M137.52717,150.700656 C137.12717,151.80978 136.52717,149.517591 137.62717,149 C137.52717,149.517591 137.72717,150.183065 137.52717,150.700656 Z" id="Shape" fill="#FDDD62" fill-rule="nonzero"></path>
            <path d="M319,205.609224 C318.757345,206.740412 317.786726,206.821211 317.139647,207.144408 C306.139296,212.315556 295.138946,217.648301 284.38125,223.385043 C270.226388,230.899367 256.31418,238.817686 243.696131,248.675186 C230.350118,259.09828 219.592422,271.783751 211.018619,286.327603 C204.1434,297.881886 199.290305,310.163361 196.701987,323.333627 C196.540217,324.141619 196.782872,325.03041 195.893138,326 C192.738625,321.152049 190.473847,316.061701 188.694379,310.728955 C185.782522,302.002644 184.569248,292.953136 185.135442,283.74203 C186.186946,266.289407 191.929776,250.452768 202.444817,236.393711 C216.033485,218.213896 233.828169,206.174818 256.071525,201.003671 C267.96161,198.175699 279.932579,198.418097 291.822664,201.246068 C300.720006,203.427646 309.779118,204.720433 319,205.609224 Z" id="Shape" fill="#FDDD62" fill-rule="nonzero"></path>
            <path d="M394.189373,359.645059 C384.881779,381.27855 369.665885,397.300346 348.622628,407.54779 C339.315033,412.102209 329.440889,414.786063 319.081132,415.680681 C303.541496,417.063272 288.973087,413.972774 275.375905,406.083869 C274.890292,405.839882 274.323742,405.677225 274,404.782607 C278.127716,403.887988 282.174496,403.074699 286.059405,401.936095 C301.760912,397.381675 315.681836,389.5741 328.631533,379.651972 C344.89959,367.289977 356.635252,351.186852 366.833139,333.701136 C376.38354,317.435353 384.800843,300.518939 392.732532,283.439867 C393.13721,282.626578 393.299081,281.73196 394.270309,281 C394.755922,284.822459 395.241536,288.48226 395.72715,292.060732 C396.536506,298.404388 397.831475,304.666714 399.207381,310.92904 C402.849483,327.764125 400.826093,344.029908 394.189373,359.645059 Z" id="Shape" fill="#FDDD62" fill-rule="nonzero"></path>
            <path d="M406,195 C399.991295,210.012957 393.901391,224.457856 387.64909,238.821604 C379.610417,257.161757 371.16575,275.339608 361.990295,293.111703 C354.032821,308.530416 345.669353,323.705675 336.006706,338.150574 C326.831251,351.783962 314.651443,362.009003 300.522867,370.124115 C291.185014,375.480089 281.197572,379.375343 270.479342,381.079516 C259.84231,382.78369 249.367675,382.377934 239.461432,377.671169 C238.32465,377.184263 237.350265,376.453903 236.538278,375.642391 C233.696323,372.802102 231.016765,369.799511 228.012413,367.202675 C222.653297,362.577061 220.785727,356.409576 219.730143,349.917487 C217.375381,335.066832 220.948124,321.18999 227.119227,307.800056 C233.371528,294.32897 241.978592,282.562058 252.940419,272.661621 C260.004707,266.331834 268.04338,261.381616 276.24445,256.512548 C303.933213,240.038871 332.921155,226.243181 362.31509,213.340153 C376.037673,207.33497 389.841455,201.573241 403.726436,195.892662 C404.376026,195.568058 405.025615,195.324604 406,195 Z" id="Shape" fill="#FDDD62" fill-rule="nonzero"></path>
            <path d="M108.587971,293 L108.587971,307 C107.687971,305.947977 108.087971,304.815029 108.187971,303.682081 C108.287971,300.121387 107.487971,296.560694 108.587971,293 Z" id="Shape" fill="#FDDD62" fill-rule="nonzero"></path>
        </g>
    </g>
</svg>